<?xml version="1.0" encoding="UTF-8" standalone="no"?>
<!-- Created with Inkscape (http://www.inkscape.org/) -->

<svg
   xmlns:dc="http://purl.org/dc/elements/1.1/"
   xmlns:cc="http://creativecommons.org/ns#"
   xmlns:rdf="http://www.w3.org/1999/02/22-rdf-syntax-ns#"
   xmlns:svg="http://www.w3.org/2000/svg"
   xmlns="http://www.w3.org/2000/svg"
   xmlns:sodipodi="http://sodipodi.sourceforge.net/DTD/sodipodi-0.dtd"
   xmlns:inkscape="http://www.inkscape.org/namespaces/inkscape"
   width="400"
   height="115"
   viewBox="0 0 400 115"
   id="svg3478"
   version="1.1"
   inkscape:version="0.91 r13725"
   sodipodi:docname="bistorm.svg">
  <defs
     id="defs3480" />
  <sodipodi:namedview
     id="base"
     pagecolor="#ffffff"
     bordercolor="#666666"
     borderopacity="1.0"
     inkscape:pageopacity="0.0"
     inkscape:pageshadow="2"
     inkscape:zoom="3.959798"
     inkscape:cx="256.57503"
     inkscape:cy="16.858063"
     inkscape:document-units="px"
     inkscape:current-layer="layer1"
     showgrid="false"
     units="px"
     inkscape:window-width="1920"
     inkscape:window-height="1057"
     inkscape:window-x="-8"
     inkscape:window-y="-8"
     inkscape:window-maximized="1" />
  <metadata
     id="metadata3483">
    <rdf:RDF>
      <cc:Work
         rdf:about="">
        <dc:format>image/svg+xml</dc:format>
        <dc:type
           rdf:resource="http://purl.org/dc/dcmitype/StillImage" />
        <dc:title></dc:title>
      </cc:Work>
    </rdf:RDF>
  </metadata>
  <g
     inkscape:label="Layer 1"
     inkscape:groupmode="layer"
     id="layer1"
     transform="translate(0,-937.36216)">
    <g
       id="g3617"
       transform="translate(-0.80093982,-1.2193647)">
      <path
         style="fill:#9934fd"
         d="m 49.643564,1047.9644 c 4.939521,-12.229 5.42195,-22.1052 1.402635,-28.7145 -2.673986,-4.397 -8.137609,-5.3163 -31.595407,-5.3163 l -19.45077862933,0 0,-8.5 0,-8.50001 23.36928662933,0 23.369288,0 2.481691,-5.75 c 3.735832,-8.6558 5.123313,-15.66959 4.369155,-22.08629 -1.435965,-12.21783 -3.739453,-13.16371 -32.057302,-13.16371 l -21.53211862933,0 0,-8.54888 0,-8.54888 24.90944262933,0.29888 24.909444,0.29888 3.840556,3.09506 c 5.194355,4.18608 8.007649,9.50256 9.401611,17.76691 1.980131,11.73954 -0.576877,24.49625 -6.975953,34.80248 l -2.89613,4.66445 2.502832,2.33551 c 9.140899,8.53 10.756601,29.7324 3.45477,45.3361 l -3.041494,6.4995 -4.436298,0 -4.436298,0 z m 68.356446,-7.7209 c -1.375,-0.2298 -5.9875,-1.5555 -10.25,-2.946 l -7.75,-2.5282 0,-6.9178 c 0,-3.8049 0.2289,-6.9179 0.50866,-6.9179 0.27976,0 2.33597,1.3237 4.56934,2.9415 13.27813,9.6187 37.42054,9.7302 42.351,0.1958 2.37692,-4.5965 2.02165,-10.4483 -0.84084,-13.8502 -2.58653,-3.0739 -7.57351,-4.9211 -21.08816,-7.8112 -13.16113,-2.81455 -19.74615,-7.03411 -22.95227,-14.70744 -3.458304,-8.27689 -0.92989,-17.71762 6.43302,-24.02 9.61358,-8.22886 25.27485,-9.74417 43.76925,-4.2349 l 5.25,1.56391 0,7.11625 c 0,6.75541 -0.0901,7.0347 -1.77712,5.50797 -4.43309,-4.01189 -13.59048,-7.08915 -22.22288,-7.46781 -7.37429,-0.32347 -9.09597,-0.0657 -13,1.94663 -6.04175,3.11416 -8.56002,8.02599 -7.02934,13.71054 1.71721,6.37719 5.11804,8.09082 25.02934,12.61191 9.79337,2.22369 16.62231,5.96914 19.89221,10.91034 3.79925,5.7411 3.72752,15.1818 -0.16567,21.8048 -5.32968,9.0666 -15.97868,13.885 -30.15804,13.6457 -4.43768,-0.075 -9.1935,-0.3242 -10.5685,-0.5539 z m 68.53363,-0.7353 c -5.78721,-1.6026 -9.90561,-5.651 -11.46633,-11.2713 -0.58088,-2.0918 -1.05866,-12.2408 -1.06172,-22.5533 l -0.006,-18.75001 -4,0 -4,0 0,-4.5 0,-4.5 4,0 4,0 0,-8.5 0,-8.5 5.5,0 5.5,0 0,8.5 0,8.5 10.5,0 10.5,0 0,4.5 0,4.5 -10.61853,0 -10.61852,0 0.40122,19.51001 c 0.39532,19.2233 0.4379,19.5466 2.89775,22.0065 2.74149,2.7415 7.73584,3.5051 14.18808,2.1692 l 3.75,-0.7763 0,4.4779 c 0,5.0487 -0.18365,5.1717 -9,6.0282 -3.27576,0.3183 -7.50844,-0.022 -10.46637,-0.8409 z m 82.13654,-2.3246 c -1.29521,-2.0625 -2.89237,-4.7638 -3.54924,-6.0028 l -1.19431,-2.2528 -2.8775,2.1274 c -1.58263,1.1701 -5.27582,2.9393 -8.20709,3.9317 l -5.32959,1.8042 -1.84468,-2.9135 c -1.01458,-1.6024 -1.67909,-3.4102 -1.47671,-4.0174 0.20239,-0.6071 3.86945,-2.5555 8.14903,-4.3298 l 7.78106,-3.2258 -1.86062,-2.2978 -1.86062,-2.2978 -7.75174,3.2271 c -4.26345,1.7749 -7.87618,3.0628 -8.02828,2.8622 -0.15209,-0.2007 -1.97587,-3.5149 -4.05284,-7.3649 -2.07696,-3.85 -3.91568,-7.149 -4.08602,-7.331 -0.25977,-0.2777 -4.27991,1.5171 -5.2952,2.364 -0.1728,0.1441 1.2897,3.4469 3.25,7.3395 1.9603,3.8927 3.56418,7.2927 3.56418,7.5557 0,0.263 -2.1375,1.4304 -4.75,2.5941 l -4.75,2.1159 -3.63628,-4.0696 c -1.99995,-2.2382 -4.38528,-5.6479 -5.30073,-7.5771 -1.40925,-2.9698 -1.95324,-3.353 -3.54798,-2.4995 -2.75679,1.4753 -3.01501,1.3078 -3.01501,-1.9568 0,-1.9414 0.6904,-3.3343 2,-4.0352 1.59037,-0.8511 2,-2.0938 2,-6.0673 0,-2.7483 0.70484,-6.66999 1.5663,-8.71483 l 1.56631,-3.71788 3.54321,6.28263 c 3.02455,5.36298 3.85656,6.18818 5.6837,5.63758 3.86419,-1.1644 3.83355,-2.0806 -0.34771,-10.39672 -3.92353,-7.80352 -4.04934,-8.32454 -2.43948,-10.10341 0.93356,-1.03157 3.83198,-2.9393 6.44094,-4.2394 3.86113,-1.92409 4.57091,-2.67233 3.81545,-4.02225 -0.78633,-1.40509 -0.39487,-1.65843 2.56257,-1.65843 1.91987,0 3.76879,0.45 4.10871,1 0.33992,0.55 2.3746,1 4.5215,1 5.59895,0 14.59881,3.66218 19.1873,7.8076 l 3.94714,3.566 4.17203,-1.58409 c 2.29462,-0.87125 4.95953,-1.90346 5.92203,-2.29379 1.44198,-0.58478 1.75,-0.16641 1.75,2.37697 0,2.60478 -0.63742,3.41185 -4.08295,5.16963 -3.08385,1.57326 -3.91902,2.49586 -3.41303,3.77032 1.35581,3.41496 2.78478,12.99237 2.17542,14.58037 -0.3455,0.9003 -1.76472,2.0803 -3.15381,2.622 -1.3891,0.5417 -3.66478,1.4292 -5.05707,1.9722 -2.43206,0.9484 -2.46821,1.0837 -0.92091,3.4452 1.34293,2.0495 2.01278,2.305 4.03144,1.5375 2.80521,-1.0665 3.04373,-0.3041 0.87398,2.7936 -1.45917,2.0833 -1.26163,2.6916 3.48188,10.7225 l 5.02881,8.514 -3.46934,0 c -2.92369,0 -3.83971,-0.5898 -5.82425,-3.75 z m 78.14129,-22.3381 -0.31146,-26.08811 -2.80576,-2.4119 c -2.06308,-1.77347 -3.99271,-2.4119 -7.28984,-2.4119 -4.28127,0 -11.55139,2.81079 -12.89557,4.98571 -1.39963,2.26465 -2.50883,0.76286 -2.50883,-3.39682 0,-3.74782 0.48869,-4.82317 3.25,-7.15153 5.13158,-4.327 9.41394,-5.69175 16.4533,-5.24352 6.84967,0.43616 10.31168,2.31027 13.843,7.49372 l 2.0463,3.00367 3.9537,-3.4703 c 11.68553,-10.2568 30.15303,-10.05719 34.48052,2.1302 l 1.47318,4.14887 0.30878,27.25001 0.30878,27.25 -5.48184,0 -5.48184,0 -0.32694,-24.75 c -0.41083,-31.10069 -0.82825,-32.25001 -11.71295,-32.25001 -3.4939,0 -5.91295,0.75501 -9.29877,2.90223 -2.51698,1.59622 -4.88497,3.40161 -5.26219,4.01197 -0.37723,0.61036 -0.64171,12.12931 -0.58775,25.59781 l 0.0981,24.488 -5.97024,0 -5.97025,0 -0.31145,-26.0881 z m -270.811457,-6.4119 0,-30.50001 5.5,0 5.5,0 0,30.50001 0,30.5 -5.5,0 -5.5,0 z m 206.999997,0 0,-30.50001 5.5,0 5.5,0 0,4.54804 0,4.54804 4.48902,-3.08852 c 4.96911,-3.41884 11.49167,-6.00756 15.13671,-6.00756 2.21124,0 2.37427,0.37766 2.37427,5.5 l 0,5.5 -4.75,0.022 c -4.80455,0.0222 -12.23988,2.75392 -15.48202,5.68801 -1.58545,1.43482 -1.76798,3.80372 -1.76798,22.945 l 0,21.345 -5.5,0 -5.5,0 z m -47.78564,27.2937 c -1.8071,-0.4781 -3.05161,-1.248 -2.76558,-1.7108 0.96699,-1.5647 4.47038,-1.8852 5.60899,-0.5133 1.85452,2.2346 0.67701,3.1556 -2.84341,2.2241 z m 114.56078,-64.31209 c -5.64767,-3.14865 -6.507,-9.90361 -1.85206,-14.55854 4.88448,-4.88449 12.88465,-3.06572 15.02364,3.41549 2.63079,7.97137 -5.9062,15.19359 -13.17158,11.14305 z m 35.6944,-1.21775 c -5.73092,-1.18541 -7.95467,-9.55441 -3.99522,-14.51683 3.97447,-4.98125 15.06645,-4.28384 16.10767,3.95396 0.80818,6.39401 -1.19188,12.82175 -12.11245,10.56287 z M 75.646036,954.48134 c -3.615825,-3.35103 -3.706887,-9.5778 -0.191478,-13.0932 3.47172,-3.47172 9.33818,-3.3891 12.909091,0.18181 8.124648,8.12465 -4.286592,20.725 -12.717613,12.91139 z"
         id="path3623"
         inkscape:connector-curvature="0"
         sodipodi:nodetypes="ssscccccssscccccssscsscccscscsscsssssscsssssssscccsccccccccccccccccccccssccscccsccsccscccccscsccsscccscscsscscsssssssscssssscsccccscssccssssssscsscccccssscsccccccccccccccccccccsssccssccccccccssssssssssss" />
      <path
         style="fill:#e88a08"
         d="m 49.643564,1047.9644 c 4.939521,-12.229 5.42195,-22.1052 1.402635,-28.7145 -2.673986,-4.397 -8.137609,-5.3163 -31.595407,-5.3163 l -19.45077862933,0 0,-8.5 0,-8.50001 23.05901662933,0 c 22.873126,0 25.98593,0.51069 19.093844,3.13261 l -2.652861,1.0091 3.5,2.8715 3.5,2.8715 3.552881,-3.4528 3.552882,-3.45284 2.582957,2.76044 c 3.932022,4.2023 5.713123,8.4582 6.997689,16.7208 1.498162,9.6366 0.130715,19.1279 -4.039836,28.0402 l -3.041494,6.4995 -4.436298,0 -4.436298,0 2.411068,-5.9692 z m 297.167906,-33.1189 -0.31146,-26.08811 -2.80576,-2.4119 c -2.06308,-1.77347 -3.99271,-2.4119 -7.28984,-2.4119 -4.28127,0 -11.55139,2.81079 -12.89557,4.98571 -1.39963,2.26465 -2.50883,0.76286 -2.50883,-3.39682 0,-3.74782 0.48869,-4.82317 3.25,-7.15153 4.56428,-3.84865 8.874,-5.43736 14.75,-5.43736 6.40174,0 10.85493,1.85045 14.29669,5.94075 3.25824,3.8722 3.35124,5.34058 0.58433,9.22635 -2.09334,2.93982 -2.09637,3.01833 -0.25,6.48717 2.24633,4.22028 3.36362,5.09672 3.38429,2.65475 0.008,-0.99496 0.45153,-2.48402 0.98469,-3.30902 0.64064,-0.99131 0.97457,6.72371 0.98469,22.75001 l 0.0153,24.25 -5.93854,0 -5.93855,0 -0.31145,-26.0881 z m -111.5971,20.8818 c -1.8071,-0.4781 -3.05161,-1.248 -2.76558,-1.7108 0.96699,-1.5647 4.47038,-1.8852 5.60899,-0.5133 1.85452,2.2346 0.67701,3.1556 -2.84341,2.2241 z m 10.17879,-2.3623 c -0.99299,-1.8438 -1.48944,-3.6685 -1.10322,-4.0547 0.94854,-0.9485 13.88826,-6.3783 15.18122,-6.3704 0.56587,0 1.77623,1.3201 2.6897,2.9257 1.54779,2.7207 1.54779,3.0183 0,4.3731 -2.3137,2.0251 -6.99412,4.2912 -11.31155,5.4765 -3.51522,0.9651 -3.71771,0.8779 -5.45615,-2.3502 z m -24.72834,-6.5099 c -1.92006,-2.2432 -4.19307,-5.5057 -5.05112,-7.25 l -1.56009,-3.1715 4.7232,-2.1886 c 7.24511,-3.3573 7.7783,-3.1449 11.71063,4.6636 1.93191,3.8363 3.51257,7.1902 3.51257,7.4532 0,0.4071 -8.699,4.5718 -9.54919,4.5718 -0.16223,0 -1.86593,-1.8353 -3.786,-4.0785 z m 15.90842,-10.4222 c -2.15973,-4.1135 -3.73473,-7.658 -3.5,-7.8767 0.23472,-0.2187 3.66085,-1.7661 7.61361,-3.4387 5.34139,-2.2602 7.42236,-2.7384 8.10404,-1.8625 1.63163,2.0966 8.3019,13.9203 8.00091,14.1824 -0.50932,0.4435 -15.2309,6.4967 -15.77285,6.4854 -0.28542,-0.01 -2.28599,-3.3764 -4.44571,-7.4899 z m 30.05041,4.9623 c -0.38437,-1.0016 0.18887,-1.8332 1.64301,-2.3834 2.84206,-1.0754 3.16116,-0.7461 1.77919,1.8361 -1.32203,2.4703 -2.60552,2.6755 -3.4222,0.5473 z m -4.96366,-8.7253 c -0.75247,-1.23 -2.77334,-4.5886 -4.49082,-7.4636 -3.57462,-5.98374 -4.06646,-5.2807 6.76809,-9.67433 7.29314,-2.95752 7.39433,-2.90485 9.03039,4.70083 2.01114,9.3493 1.65026,10.1737 -5.70358,13.0288 -4.15538,1.6133 -4.26196,1.602 -5.60408,-0.5917 z m -48.65998,-7.755 c 0,-2.7751 0.70261,-6.71859 1.56136,-8.76343 l 1.56136,-3.71788 3.42613,6 c 3.85121,6.74441 3.94632,7.08151 2.20115,7.80221 -0.6875,0.2839 -2.9375,1.2381 -5,2.1204 l -3.75,1.6042 0,-5.0455 z m 12.19919,-10.54372 c -2.33401,-4.70615 -3.9549,-9.02385 -3.60198,-9.59489 1.0299,-1.6664 9.6476,-6.84489 11.34857,-6.8195 0.90663,0.0135 3.7181,3.86771 6.74751,9.25 l 5.19328,9.2268 -5.77915,2.63052 c -10.06004,4.57909 -9.15901,4.88309 -13.90823,-4.69293 z m 20.55081,-8.82861 c -2.6125,-4.6078 -4.75,-8.65483 -4.75,-8.9934 0,-0.33857 1.55812,-0.61558 3.46249,-0.61558 5.30756,0 14.48148,3.87549 18.87492,7.97365 l 3.95087,3.68534 -7.89414,3.17588 c -4.34178,1.74674 -8.11914,3.17049 -8.39414,3.16391 -0.275,-0.007 -2.6375,-3.782 -5.25,-8.3898 z m 104.02514,-14.12736 c -5.64767,-3.14865 -6.507,-9.90361 -1.85206,-14.55854 4.88448,-4.88449 12.88465,-3.06572 15.02364,3.41549 2.63079,7.97137 -5.9062,15.19359 -13.17158,11.14305 z"
         id="path3621"
         inkscape:connector-curvature="0" />
      <path
         style="fill:#b26608"
         d="m 233.22163,1035.0917 c -0.92822,-0.589 -0.59106,-1.1244 1.23094,-1.9545 2.15127,-0.9802 2.65974,-0.8623 3.56356,0.8265 0.90652,1.6939 0.73402,1.9677 -1.23094,1.9546 -1.25685,-0.01 -2.86045,-0.3804 -3.56356,-0.8266 z m 12.30406,-2.1084 c -0.83912,-1.6227 -1.52568,-3.1472 -1.52568,-3.3876 0,-0.6019 16.01285,-7.0104 16.34133,-6.5401 3.72779,5.3377 3.75764,5.6713 0.70197,7.8472 -3.72165,2.65 -9.39365,5.0308 -11.9855,5.0308 -1.21046,0 -2.6117,-1.1704 -3.53212,-2.9503 z m -24.98458,-6.1832 c -1.45018,-1.7235 -3.49748,-4.8208 -4.54955,-6.8831 l -1.91285,-3.7495 5.094,-2.1169 c 2.8017,-1.1644 5.5965,-2.1153 6.21065,-2.1133 0.85217,0 6.18535,8.8987 8.38528,13.9868 0.37691,0.8717 -6.44227,4.0095 -8.71366,4.0095 -1.03245,0 -3.06369,-1.4101 -4.51387,-3.1335 z m 19.62476,-4.2051 c -1.37964,-1.7192 -7.34839,-13.817 -6.98134,-14.1501 0.17352,-0.1575 3.54956,-1.6548 7.50232,-3.3274 5.34139,-2.2602 7.42236,-2.7384 8.10404,-1.8625 1.57168,2.0196 8.30842,13.9175 8.00091,14.1306 -0.16049,0.1112 -3.75727,1.5902 -7.99285,3.2865 -5.68267,2.276 -7.94533,2.78 -8.63308,1.9229 z m 26.52027,-1.037 c -0.31058,-0.8093 0.4686,-1.8295 1.89301,-2.4785 2.68595,-1.2238 2.90539,-0.9198 1.38568,1.9198 -1.21392,2.2682 -2.53622,2.4936 -3.27869,0.5587 z m -5.05063,-8.9255 c -0.73901,-1.2094 -2.76837,-4.5829 -4.5097,-7.4966 l -3.16604,-5.29775 5.19197,-2.29136 5.19196,-2.29135 2.64931,3.08907 c 7.76109,9.04939 7.93218,11.52239 0.99658,14.40469 l -5.01042,2.0822 -1.34366,-2.1989 z m -44.91425,-5.487 c 0.34608,-0.9416 1.30869,-2.7726 2.13914,-4.069 1.4274,-2.2282 1.58174,-2.2587 2.82476,-0.5588 1.8623,2.5468 1.72392,2.8504 -2.13914,4.6926 -3.24086,1.5454 -3.41516,1.5414 -2.82476,-0.065 z m 10.88969,-7.90159 c -1.74131,-3.65156 -1.73548,-3.70814 0.56479,-5.47789 1.27835,-0.98351 4.51453,-2.52685 7.19152,-3.42963 5.28792,-1.78329 5.09494,-1.87168 8.13153,3.72442 l 1.4256,2.62723 -7.43937,3.12277 c -4.09166,1.71749 -7.5913,3.12279 -7.77698,3.12279 -0.18568,0 -1.12937,-1.6604 -2.09709,-3.68969 z m 21.22846,-8.24191 -1.66059,-2.91893 4.66059,1.41443 c 2.56333,0.77794 5.1106,1.43693 5.6606,1.46441 1.03684,0.0518 -5.24079,2.97655 -6.36481,2.96536 -0.34935,-0.004 -1.38246,-1.31985 -2.29579,-2.92527 z"
         id="path3619"
         inkscape:connector-curvature="0" />
    </g>
  </g>
</svg>
